<svg width="35" height="39" viewBox="0 0 35 39" fill="none" xmlns="http://www.w3.org/2000/svg">
<path fill-rule="evenodd" clip-rule="evenodd" d="M19.5874 30.0605C20.7219 27.5711 19.0065 24.7179 16.2758 24.5524C14.6655 24.4548 13.1614 25.359 12.4924 26.827L8.15937 36.3345C7.8212 37.0765 8.33251 37.927 9.14646 37.9764C9.41106 37.9924 9.67319 37.9175 9.88936 37.7641L11.1629 36.8602C11.9707 36.2868 13.0991 36.5627 13.5513 37.4441L13.5968 37.5327C13.8309 37.9891 14.2886 38.2881 14.8006 38.3191C15.4003 38.3555 15.9604 38.0187 16.2096 37.4721L19.5874 30.0605Z" fill="#C28F09"/>
<path fill-rule="evenodd" clip-rule="evenodd" d="M16.4101 34.0054C14.8109 31.6426 16.4037 28.439 19.2528 28.2879C20.5371 28.2198 21.7631 28.8294 22.4839 29.8944L26.7222 36.1563C27.1862 36.8419 26.724 37.7715 25.8972 37.8153C25.7195 37.8248 25.5423 37.7895 25.3818 37.7127L23.6463 36.8827C22.9147 36.5328 22.0375 36.7579 21.5647 37.4169C21.2686 37.8296 20.801 38.0855 20.2937 38.1124L20.238 38.1154C19.6113 38.1486 19.013 37.8511 18.6612 37.3314L16.4101 34.0054Z" fill="#C28F09"/>
<path fill-rule="evenodd" clip-rule="evenodd" d="M33.9616 16.9265C34.0217 26.2747 26.4921 33.9016 17.1439 33.9617C7.79569 34.0217 0.168782 26.4922 0.108731 17.144C0.0486806 7.79576 7.57823 0.168849 16.9264 0.108798C20.7437 0.0842768 24.274 1.32528 27.1192 3.43888L22.9673 7.76745C21.2362 6.65713 19.1743 6.01886 16.9645 6.03305C10.8882 6.07208 5.99398 11.0296 6.03301 17.1059C6.07204 23.1823 11.0295 28.0765 17.1059 28.0374C23.1822 27.9984 28.0764 23.0409 28.0374 16.9646C28.0332 16.3144 27.9727 15.6777 27.8606 15.0591L32.605 10.3835C33.4646 12.3932 33.9467 14.6037 33.9616 16.9265Z" fill="#C28F09"/>
<path d="M32.2668 5.07118L31.5291 4.34379C30.7193 3.54263 29.401 3.55109 28.599 4.36261L16.235 16.8882L11.791 12.5027C10.9812 11.7024 9.66206 11.7108 8.86261 12.5223L8.13521 13.2583C7.33576 14.0689 7.34423 15.3872 8.15403 16.1875L14.8042 22.7596C15.6148 23.559 16.9331 23.5506 17.7334 22.7408L32.2856 8.00043C33.0842 7.18979 33.0757 5.8715 32.2668 5.07118Z" fill="#C28F09"/>
</svg>
