<svg width="389" height="53" viewBox="0 0 389 53" fill="none" xmlns="http://www.w3.org/2000/svg">
<path fill-rule="evenodd" clip-rule="evenodd" d="M31.5874 37.0605C32.7219 34.5711 31.0065 31.7179 28.2758 31.5524V31.5524C26.6655 31.4548 25.1615 32.359 24.4924 33.827L20.1594 43.3345C19.8212 44.0765 20.3325 44.927 21.1465 44.9764V44.9764C21.4111 44.9924 21.6732 44.9175 21.8894 44.7641L23.1629 43.8602C23.9707 43.2868 25.0992 43.5627 25.5514 44.4441L25.5968 44.5327C25.831 44.9891 26.2886 45.2881 26.8007 45.3191V45.3191C27.4003 45.3555 27.9605 45.0187 28.2096 44.4721L31.5874 37.0605Z" fill="#C28F09"/>
<path fill-rule="evenodd" clip-rule="evenodd" d="M28.4101 41.0054C26.8109 38.6426 28.4037 35.439 31.2528 35.2879V35.2879C32.5371 35.2198 33.7631 35.8294 34.4839 36.8944L38.7222 43.1563C39.1862 43.8419 38.724 44.7715 37.8972 44.8153V44.8153C37.7195 44.8248 37.5423 44.7895 37.3818 44.7127L35.6463 43.8827C34.9147 43.5328 34.0375 43.7579 33.5647 44.4169V44.4169C33.2686 44.8296 32.801 45.0855 32.2937 45.1124L32.238 45.1154C31.6113 45.1486 31.013 44.8511 30.6612 44.3314L28.4101 41.0054Z" fill="#C28F09"/>
<path fill-rule="evenodd" clip-rule="evenodd" d="M45.9616 23.9265C46.0217 33.2747 38.4921 40.9016 29.1439 40.9617C19.7957 41.0217 12.1688 33.4922 12.1087 24.144C12.0487 14.7958 19.5782 7.16885 28.9264 7.1088C32.7437 7.08428 36.274 8.32528 39.1192 10.4389L34.9673 14.7675C33.2362 13.6571 31.1743 13.0189 28.9645 13.0331C22.8882 13.0721 17.994 18.0296 18.033 24.1059C18.072 30.1823 23.0295 35.0765 29.1059 35.0374C35.1822 34.9984 40.0764 30.0409 40.0374 23.9646C40.0332 23.3144 39.9727 22.6777 39.8606 22.0591L44.605 17.3835C45.4646 19.3932 45.9467 21.6037 45.9616 23.9265Z" fill="#C28F09"/>
<path d="M44.2668 12.0712L43.5291 11.3438C42.7193 10.5426 41.401 10.5511 40.599 11.3626L28.235 23.8882L23.791 19.5027C22.9812 18.7024 21.6621 18.7108 20.8626 19.5223L20.1352 20.2583C19.3358 21.0689 19.3442 22.3872 20.154 23.1875L26.8042 29.7596C27.6148 30.559 28.9331 30.5506 29.7334 29.7408L44.2856 15.0004C45.0842 14.1898 45.0757 12.8715 44.2668 12.0712Z" fill="#C28F09"/>
<path d="M74.032 37.288C72.32 37.288 70.768 36.92 69.376 36.184C68 35.432 66.912 34.4 66.112 33.088C65.328 31.76 64.936 30.264 64.936 28.6C64.936 26.936 65.328 25.448 66.112 24.136C66.912 22.808 68 21.776 69.376 21.04C70.768 20.288 72.328 19.912 74.056 19.912C75.512 19.912 76.824 20.168 77.992 20.68C79.176 21.192 80.168 21.928 80.968 22.888L78.472 25.192C77.336 23.88 75.928 23.224 74.248 23.224C73.208 23.224 72.28 23.456 71.464 23.92C70.648 24.368 70.008 25 69.544 25.816C69.096 26.632 68.872 27.56 68.872 28.6C68.872 29.64 69.096 30.568 69.544 31.384C70.008 32.2 70.648 32.84 71.464 33.304C72.28 33.752 73.208 33.976 74.248 33.976C75.928 33.976 77.336 33.312 78.472 31.984L80.968 34.288C80.168 35.264 79.176 36.008 77.992 36.52C76.808 37.032 75.488 37.288 74.032 37.288ZM94.2976 37L91.0576 32.32H90.8656H87.4816V37H83.5936V20.2H90.8656C92.3536 20.2 93.6416 20.448 94.7296 20.944C95.8336 21.44 96.6816 22.144 97.2736 23.056C97.8656 23.968 98.1616 25.048 98.1616 26.296C98.1616 27.544 97.8576 28.624 97.2496 29.536C96.6576 30.432 95.8096 31.12 94.7056 31.6L98.4736 37H94.2976ZM94.2256 26.296C94.2256 25.352 93.9216 24.632 93.3136 24.136C92.7056 23.624 91.8176 23.368 90.6496 23.368H87.4816V29.224H90.6496C91.8176 29.224 92.7056 28.968 93.3136 28.456C93.9216 27.944 94.2256 27.224 94.2256 26.296ZM114.25 33.88V37H101.242V20.2H113.938V23.32H105.106V26.968H112.906V29.992H105.106V33.88H114.25ZM117.344 20.2H124.976C126.8 20.2 128.408 20.552 129.8 21.256C131.208 21.944 132.296 22.92 133.064 24.184C133.848 25.448 134.24 26.92 134.24 28.6C134.24 30.28 133.848 31.752 133.064 33.016C132.296 34.28 131.208 35.264 129.8 35.968C128.408 36.656 126.8 37 124.976 37H117.344V20.2ZM124.784 33.808C126.464 33.808 127.8 33.344 128.792 32.416C129.8 31.472 130.304 30.2 130.304 28.6C130.304 27 129.8 25.736 128.792 24.808C127.8 23.864 126.464 23.392 124.784 23.392H121.232V33.808H124.784ZM150.18 33.88V37H137.172V20.2H149.868V23.32H141.036V26.968H148.836V29.992H141.036V33.88H150.18ZM168.681 20.2V37H165.489L157.113 26.8V37H153.273V20.2H156.489L164.841 30.4V20.2H168.681ZM176.136 23.368H170.76V20.2H185.4V23.368H180.024V37H176.136V23.368ZM187.492 20.2H191.38V37H187.492V20.2ZM206.431 33.4H198.631L197.143 37H193.159L200.647 20.2H204.487L211.999 37H207.919L206.431 33.4ZM205.207 30.448L202.543 24.016L199.879 30.448H205.207ZM213.742 20.2H217.63V33.832H226.054V37H213.742V20.2ZM240.543 37.288C239.215 37.288 237.927 37.112 236.679 36.76C235.447 36.392 234.455 35.92 233.703 35.344L235.023 32.416C235.743 32.944 236.599 33.368 237.591 33.688C238.583 34.008 239.575 34.168 240.567 34.168C241.671 34.168 242.487 34.008 243.015 33.688C243.543 33.352 243.807 32.912 243.807 32.368C243.807 31.968 243.647 31.64 243.327 31.384C243.023 31.112 242.623 30.896 242.127 30.736C241.647 30.576 240.991 30.4 240.159 30.208C238.879 29.904 237.831 29.6 237.015 29.296C236.199 28.992 235.495 28.504 234.903 27.832C234.327 27.16 234.039 26.264 234.039 25.144C234.039 24.168 234.303 23.288 234.831 22.504C235.359 21.704 236.151 21.072 237.207 20.608C238.279 20.144 239.583 19.912 241.119 19.912C242.191 19.912 243.239 20.04 244.263 20.296C245.287 20.552 246.183 20.92 246.951 21.4L245.751 24.352C244.199 23.472 242.647 23.032 241.095 23.032C240.007 23.032 239.199 23.208 238.671 23.56C238.159 23.912 237.903 24.376 237.903 24.952C237.903 25.528 238.199 25.96 238.791 26.248C239.399 26.52 240.319 26.792 241.551 27.064C242.831 27.368 243.879 27.672 244.695 27.976C245.511 28.28 246.207 28.76 246.783 29.416C247.375 30.072 247.671 30.96 247.671 32.08C247.671 33.04 247.399 33.92 246.855 34.72C246.327 35.504 245.527 36.128 244.455 36.592C243.383 37.056 242.079 37.288 240.543 37.288ZM253.574 23.368H248.198V20.2H262.838V23.368H257.462V37H253.574V23.368ZM275.15 33.4H267.35L265.862 37H261.878L269.366 20.2H273.206L280.718 37H276.638L275.15 33.4ZM273.926 30.448L271.262 24.016L268.598 30.448H273.926ZM285.097 23.368H279.721V20.2H294.361V23.368H288.985V37H285.097V23.368ZM296.453 20.2H300.341V37H296.453V20.2ZM312.464 37.288C310.72 37.288 309.144 36.912 307.736 36.16C306.344 35.408 305.248 34.376 304.448 33.064C303.664 31.736 303.272 30.248 303.272 28.6C303.272 26.952 303.664 25.472 304.448 24.16C305.248 22.832 306.344 21.792 307.736 21.04C309.144 20.288 310.72 19.912 312.464 19.912C314.208 19.912 315.776 20.288 317.168 21.04C318.56 21.792 319.656 22.832 320.456 24.16C321.256 25.472 321.656 26.952 321.656 28.6C321.656 30.248 321.256 31.736 320.456 33.064C319.656 34.376 318.56 35.408 317.168 36.16C315.776 36.912 314.208 37.288 312.464 37.288ZM312.464 33.976C313.456 33.976 314.352 33.752 315.152 33.304C315.952 32.84 316.576 32.2 317.024 31.384C317.488 30.568 317.72 29.64 317.72 28.6C317.72 27.56 317.488 26.632 317.024 25.816C316.576 25 315.952 24.368 315.152 23.92C314.352 23.456 313.456 23.224 312.464 23.224C311.472 23.224 310.576 23.456 309.776 23.92C308.976 24.368 308.344 25 307.88 25.816C307.432 26.632 307.208 27.56 307.208 28.6C307.208 29.64 307.432 30.568 307.88 31.384C308.344 32.2 308.976 32.84 309.776 33.304C310.576 33.752 311.472 33.976 312.464 33.976ZM339.986 20.2V37H336.794L328.418 26.8V37H324.578V20.2H327.794L336.146 30.4V20.2H339.986Z" fill="#C28F09"/>
</svg>
