<svg width="662" height="450" viewBox="0 0 662 450" fill="none" xmlns="http://www.w3.org/2000/svg">
<path d="M662 400.644C662 425.867 632.723 440.842 591.17 449.552H225.232C125.162 431.434 29.6508 386.212 29.6508 310.178C29.6508 208.082 131.269 157.671 266.785 157.671C420.632 157.671 382.525 0 544.852 0C662 0 571.664 139.575 571.664 230.054C571.664 320.52 662 323.097 662 400.644Z" fill="#C28F09"/>
<path d="M191.109 299.706L65.6327 349.657V49.951L191.109 0V299.706Z" fill="#BCDAFE"/>
<path d="M322.561 349.657L191.109 299.706V0L322.561 49.951V349.657Z" fill="#8CBFFF"/>
<path d="M448.038 299.706L322.561 349.657V49.951L448.038 0V299.706Z" fill="#BCDAFE"/>
<path d="M281.514 95.7072L279.029 107.922L289.623 103.892L281.514 95.7072Z" fill="#1980FF"/>
<path d="M279.936 103.656C274.327 102.537 272.539 97.3519 270.961 92.7789C269.415 88.2958 268.079 84.4259 263.842 83.4843C259.619 82.5527 256.747 85.4099 253.426 88.7254C249.952 92.192 246.011 96.1294 240.157 94.8219C233.502 93.3434 232.099 87.8188 230.972 83.3769C229.772 78.6503 228.827 75.7057 224.683 74.7853L217.67 73.2281L218.414 69.5642L225.428 71.1214C231.937 72.5663 233.322 78.0271 234.437 82.4166C235.655 87.2169 236.619 90.2052 240.901 91.158C244.907 92.0434 247.707 89.2524 250.949 86.0156C254.492 82.4803 258.507 78.4667 264.587 79.8204C270.775 81.1953 272.665 86.6737 274.333 91.5077C275.996 96.3279 277.247 99.3038 280.608 99.9743L279.936 103.656Z" fill="#1980FF"/>
<path d="M135.912 60.7853L134.451 73.273L144.742 67.0292L135.912 60.7853Z" fill="#1980FF"/>
<path d="M108.798 93.4807L105.239 93.0274C107.036 77.6587 120.468 65.1573 135.181 65.1573C136.042 65.1573 136.899 65.1997 137.729 65.2834L137.386 69.0122C136.669 68.9398 135.927 68.9036 135.181 68.9036C122.219 68.9036 110.384 79.929 108.798 93.4807Z" fill="#1980FF"/>
<path d="M103.308 109.489L114.388 103.245L105.08 97.7141L103.308 109.489Z" fill="#1980FF"/>
<path d="M129.037 121.347C126.249 121.347 123.501 120.896 120.901 119.981C114.738 117.814 109.878 113.255 107.216 107.142C106.876 106.364 106.572 105.555 106.31 104.741L109.709 103.548C109.932 104.243 110.191 104.928 110.479 105.591C112.726 110.749 116.833 114.599 122.045 116.431C128.056 118.544 135.021 117.774 141.157 114.318L142.858 117.616C138.474 120.085 133.7 121.347 129.037 121.347Z" fill="#1980FF"/>
<path d="M157.124 109.489L147.506 103.245L146.523 115.018L157.124 109.489Z" fill="#1980FF"/>
<path d="M152.153 109.67L149.399 107.272C149.9 106.642 150.388 105.976 150.846 105.292C154.879 99.2675 156.452 92.0409 155.162 85.4648C154.056 79.8291 150.934 75.095 146.373 72.1342L148.265 68.951C153.671 72.4614 157.368 78.0584 158.673 84.7118C160.161 92.2906 158.378 100.575 153.783 107.438C153.268 108.209 152.72 108.961 152.153 109.67Z" fill="#1980FF"/>
<path d="M409.732 69.1109L414.592 80.5197L420.896 70.7518L409.732 69.1109Z" fill="#1980FF"/>
<path d="M350.313 101.568L411.445 73.1131L412.904 76.5353L351.771 104.99L350.313 101.568Z" fill="#1980FF"/>
<path d="M90.3433 169.389V236.222L177.964 195.185V134.508L90.3433 169.389Z" fill="#D4E7FF"/>
<path d="M424.182 100.481L341.582 133.364V201.009L424.182 162.324V100.481Z" fill="#D4E7FF"/>
<path d="M289.623 154.059L215.591 124.586V185.85L289.623 220.524V154.059Z" fill="#D4E7FF"/>
<path d="M137.482 167.782L134.1 175.447L139.914 178.249L113.084 188.585L115.878 196.503L142.708 186.169L140.026 192.244L147.359 195.779L155.818 176.619L137.482 167.782Z" fill="#0DBF95"/>
<path d="M239.282 161.35L244.935 156.586L262.938 179.915L257.284 184.679L239.282 161.35Z" fill="#FF9201"/>
<path d="M237.665 172.288L263.086 161.37L265.834 168.358L240.413 179.275L237.665 172.288Z" fill="#FF9201"/>
<path d="M557.373 247.726V266.842C557.373 274.383 563.222 280.496 570.439 280.496C577.656 280.496 583.505 274.383 583.505 266.842V247.726H557.373Z" fill="#FFC400"/>
<path d="M567.173 247.726C567.173 247.726 566.112 230.23 561.946 217.685C561.946 217.685 569.787 231.339 569.787 247.726H567.173Z" fill="#08A078"/>
<path d="M575.012 247.726H569.785C569.785 247.726 569.785 224.627 586.554 220.416C586.555 220.416 573.666 231.339 575.012 247.726Z" fill="#0DBF95"/>
<path d="M561.696 214.959C561.696 214.959 560.531 212.563 558.755 211.926C558.201 213.8 559.367 216.196 559.367 216.196C555.829 214.007 554.105 215.928 554.105 215.928C556.037 215.285 557.037 217.434 557.037 217.434L557.925 219.26C558.906 221.276 561.266 222.081 563.196 221.055C565.126 220.03 565.896 217.564 564.914 215.547L564.026 213.721C564.026 213.721 562.955 211.611 564.589 210.358C564.589 210.358 562.089 210.682 561.696 214.959Z" fill="#FEAC00"/>
<path d="M470.841 275.8C469.515 274.489 468.798 271.043 468.475 268.308C468.188 266.247 468.153 262.688 468.153 262.688H446.642C446.642 262.688 446.606 266.247 446.32 268.308C445.997 271.043 445.28 274.489 443.954 275.8C441.086 278.648 439.472 278.273 439.472 279.547H475.323C475.323 278.273 473.709 278.648 470.841 275.8Z" fill="#F8FBFF"/>
<path d="M511.173 182.142H403.622C401.642 182.142 400.037 183.82 400.037 185.889V253.323H514.758V185.889C514.758 183.821 513.153 182.142 511.173 182.142Z" fill="#00236E"/>
<path d="M511.173 185.889V249.576H403.622V185.889H511.173Z" fill="#1980FF"/>
<path d="M511.173 264.562H403.622C401.642 264.562 400.037 262.884 400.037 260.815V253.323H514.758V260.815C514.758 262.884 513.153 264.562 511.173 264.562Z" fill="#F8FBFF"/>
<path d="M468.475 268.308H446.32C446.607 266.247 446.642 264.561 446.642 264.561H468.153C468.153 264.561 468.189 266.247 468.475 268.308Z" fill="#99C5FF"/>
<path d="M453.351 231.737L439.907 237.09V204.977L453.351 199.626V231.737Z" fill="#C8DFFF"/>
<path d="M467.436 237.09L453.351 231.737V199.626L467.436 204.977V237.09Z" fill="#DFEDFF"/>
<path d="M480.88 231.737L467.436 237.09V204.977L480.88 199.626V231.737Z" fill="#C8DFFF"/>
<path d="M562.465 282.121L564.802 281.59L599.056 446.199L596.72 446.73L562.465 282.121Z" fill="#033593"/>
<path d="M392.161 446.159L426.383 281.55L428.72 282.08L394.498 446.689L392.161 446.159Z" fill="#033593"/>
<rect x="396.71" y="279.333" width="204.746" height="8.74142" fill="#00236E"/>
<path d="M487.147 422.406L485.935 441.698C485.935 441.698 482.067 443.091 480.2 444.345C478.332 445.599 478.466 447.968 478.466 447.968H493.268L502.182 427.621L494.338 414.946L487.147 422.406Z" fill="#00236E"/>
<path d="M536.877 327.844V432.143H521.14L511.606 324.639L536.877 327.844Z" fill="#1063DC"/>
<path d="M540.658 319.185C540.658 319.185 541.411 331.746 537.544 331.746C533.677 331.746 500.737 338.574 500.737 338.574L475.133 358.78L496.736 417.031L485.534 424.834C485.534 424.834 448.461 367.977 448.861 355.296C449.262 342.615 492.402 308.882 492.402 308.882L526.474 311.399L540.658 319.185Z" fill="#1980FF"/>
<rect x="508.872" y="340.526" width="3.60059" height="108.068" fill="#00236E"/>
<path d="M522.441 445.8C522.471 448.781 537.143 449.841 538.477 446.775C539.175 445.17 534.876 438.832 534.61 435.906C534.344 432.98 533.943 429.496 533.943 429.496H525.675C525.675 429.496 525.491 433.677 524.874 436.603C524.565 438.075 522.408 442.456 522.441 445.8Z" fill="#00236E"/>
<path d="M533.551 342.058H489.659C485.761 342.058 482.6 338.755 482.6 334.681V331.745H540.61V334.681C540.61 338.755 537.449 342.058 533.551 342.058Z" fill="#033593"/>
<path d="M458.253 274.296C461.02 281.193 489.722 277.833 489.722 277.833L489.423 267.205L475.581 267.888L482.551 259.892L473.191 250.468C473.191 250.468 454.662 265.346 458.253 274.296Z" fill="#FE99C0"/>
<path d="M570.223 274.296C567.456 281.193 538.754 277.833 538.754 277.833L539.053 267.205L552.895 267.888L545.924 259.892L555.285 250.468C555.285 250.468 573.813 265.346 570.223 274.296Z" fill="#FE99C0"/>
<path d="M523.027 216.597C523.027 216.597 521.301 222.942 523.431 227.976L506.378 229.088L504.893 216.108C501.277 215.979 500.385 215.267 499.701 214.176C498.443 212.162 497.937 193.815 502.9 187.15C505.025 184.295 509.121 182.011 515.891 184.197C522.663 186.361 525.552 194.319 526.37 199.535C527.164 204.771 523.027 216.597 523.027 216.597Z" fill="#FE99C0"/>
<path d="M505.564 190.19C504.216 199.387 507.613 210.831 510.271 213.663C511.571 215.049 523.027 216.597 523.027 216.597C523.027 216.597 531.288 209.041 530.974 197.436C530.751 189.224 525.049 188.027 525.049 188.027C525.049 188.027 524.924 182.483 519.151 179.896C514.069 177.618 500.683 176.625 499.978 182.392C498.837 191.733 505.564 190.19 505.564 190.19Z" fill="#00236E"/>
<path d="M514.617 225.801C505.854 225.801 498.485 224.813 493.904 227.284C489.324 229.756 470.801 250.468 470.801 250.468L482.154 262.327L488.527 257.457L492.402 308.883C492.402 308.883 504.637 321.511 516.896 321.511C529.156 321.511 540.657 319.185 540.657 319.185L540.708 259.892L546.683 262.327L559.031 250.468C559.031 250.468 539.314 228.351 536.126 227.284C532.942 226.218 514.617 225.801 514.617 225.801Z" fill="#00236E"/>
<path d="M542.135 140.095H600.935C606.347 140.095 610.735 135.51 610.735 129.854V88.8916C610.735 83.2359 606.347 78.6504 600.935 78.6504H542.135C536.723 78.6504 532.335 83.2359 532.335 88.8916V129.855C532.335 135.511 536.723 140.095 542.135 140.095Z" fill="#1980FF"/>
<path d="M508.911 109.373H557.91C560.617 109.373 562.81 111.665 562.81 114.493V145.215C562.81 148.042 560.616 150.335 557.91 150.335H528.511V165.696L513.811 150.335H508.911C506.204 150.335 504.012 148.042 504.012 145.215V114.493C504.01 111.665 506.204 109.373 508.911 109.373Z" fill="#0DBF95"/>
<path d="M533.41 134.975C536.116 134.975 538.31 132.683 538.31 129.855C538.31 127.027 536.116 124.735 533.41 124.735C530.704 124.735 528.511 127.027 528.511 129.855C528.511 132.683 530.704 134.975 533.41 134.975Z" fill="white"/>
<path d="M548.11 134.975C550.816 134.975 553.01 132.683 553.01 129.855C553.01 127.027 550.816 124.735 548.11 124.735C545.404 124.735 543.211 127.027 543.211 129.855C543.211 132.683 545.404 134.975 548.11 134.975Z" fill="white"/>
<path d="M518.71 134.975C521.416 134.975 523.61 132.683 523.61 129.855C523.61 127.027 521.416 124.735 518.71 124.735C516.004 124.735 513.811 127.027 513.811 129.855C513.811 132.683 516.004 134.975 518.71 134.975Z" fill="white"/>
<path d="M596.035 98.4458L547.036 98.4458L547.036 94.6995L596.035 94.6995L596.035 98.4458Z" fill="white"/>
<path d="M596.035 113.807L571.535 113.807L571.535 110.061L596.035 110.061L596.035 113.807Z" fill="white"/>
<path d="M596.035 129.168L571.535 129.168L571.535 125.422L596.035 125.422L596.035 129.168Z" fill="white"/>
<path d="M367.545 448.472H325.378C321.497 448.472 318.35 445.184 318.35 441.128V397.064C318.35 393.008 321.497 389.72 325.378 389.72H367.545C371.427 389.72 374.573 393.008 374.573 397.064V441.128C374.573 445.184 371.427 448.472 367.545 448.472Z" fill="#1980FF"/>
<path d="M346.462 437.456C356.165 437.456 364.031 429.236 364.031 419.096C364.031 408.956 356.165 400.737 346.462 400.737C336.759 400.737 328.893 408.956 328.893 419.096C328.893 429.236 336.759 437.456 346.462 437.456Z" fill="white"/>
<path d="M343.977 428.832L334.969 419.421L338.075 416.175L343.977 422.342L354.845 410.983L357.954 414.228L343.977 428.832Z" fill="#00236E"/>
<path d="M153.634 444.898C153.668 448.355 170.687 449.586 172.233 446.03C173.042 444.169 168.056 436.816 167.748 433.422C167.439 430.028 166.975 425.987 166.975 425.987H157.385C157.385 425.987 157.171 430.836 156.456 434.23C156.097 435.938 153.596 441.02 153.634 444.898Z" fill="#00236E"/>
<path d="M253.578 449.416H217.643C217.643 449.416 215.589 447.448 215.589 444.868C215.589 441.817 216.651 435.108 216.367 431.99H228.02C228.02 431.99 230.595 437.136 232.909 438.361C239.178 441.683 253.578 442.09 253.578 449.416Z" fill="#00236E"/>
<path d="M195.265 165.646C195.265 165.646 204.68 168.989 208.167 163.854C211.655 158.719 204.587 148.198 191.296 149.893C178.005 151.587 172.658 159.297 174.211 170.895C178.032 199.43 163.943 218.219 168.491 235.142C177.025 266.894 209.552 212.551 209.052 205.176C208.551 197.801 209.607 177.879 198.942 175.337L195.265 165.646Z" fill="#00236E"/>
<path d="M200.156 160.921C203.289 160.46 206.601 163.24 207.649 166.37C209.059 170.585 207.954 180.29 207.376 182.378C206.301 186.261 201.277 185.458 201.277 185.458C202.263 190.964 202.428 191.782 202.428 191.782C202.428 191.782 214.103 207.915 200.838 209.399C183.88 211.299 188.927 191.378 188.927 191.378C191.213 184.621 188.454 176.253 188.454 176.253C188.454 176.253 185.541 176.55 184.916 172.792C184.27 168.905 188.575 168.387 188.746 168.376C196.424 167.89 197.264 161.345 200.156 160.921Z" fill="#FE99C0"/>
<path d="M259.898 221.736C259.898 221.736 265.578 215.143 267.599 215.008C269.621 214.872 281.873 211.952 281.873 213.156C281.873 214.743 273.855 218.304 273.127 218.437C272.399 218.569 273.921 221.42 273.921 223.381C273.921 225.341 263.902 231.856 263.902 231.856L259.898 221.736Z" fill="#FE99C0"/>
<path d="M197.051 270.193C197.051 270.193 160.794 408.342 153.292 430.917L171.446 431.918C171.446 431.918 224.495 312.375 225.766 291.384C227.039 270.393 227.039 268.61 227.039 268.61L197.051 270.193Z" fill="#00236E"/>
<path d="M174.696 271.884C174.696 271.884 175.059 302.077 177.059 310.395C179.058 318.712 214.259 435.633 214.259 435.633H232.885C232.885 435.633 204.503 281.681 197.051 270.196L174.696 271.884Z" fill="#033593"/>
<path d="M187.7 197.823C187.7 197.823 194.554 204.234 199.604 203.732C204.654 203.23 211.868 197.823 211.868 197.823L221.608 272.86L187.699 273.971V197.823H187.7Z" fill="#F8FBFF"/>
<path d="M176.879 193.288C182.832 192.094 188.927 191.378 188.927 191.378C188.927 191.378 195.096 206.179 195.457 236.02C195.818 265.86 187.701 305.048 187.701 305.048L165.97 302.672C165.97 302.672 173.995 251.537 174.355 227.187C174.355 227.187 173.55 215.783 174.094 208.291C174.637 200.798 176.879 193.288 176.879 193.288Z" fill="#1980FF"/>
<path d="M202.428 191.78C202.428 191.78 208.082 228.618 209.344 243.657C210.606 258.696 212.019 300.69 212.019 300.69H231.605C231.605 300.69 227.381 253.445 222.872 233.631C222.872 233.631 234.055 258.099 238.744 257.443C243.433 256.787 268.145 231.079 268.145 231.079L260.625 220.578L241.805 234.385C241.805 234.385 226.659 199.495 220.708 196.869C214.755 194.243 202.428 191.78 202.428 191.78Z" fill="#1980FF"/>
<path d="M208.167 163.854C204.679 168.989 195.265 165.646 195.265 165.646L191.297 149.893C204.528 148.284 211.714 158.632 208.167 163.854Z" fill="#00236E"/>
<path d="M167.549 264.705C167.549 264.705 174.533 279.218 174.066 282.946C173.599 286.674 167.809 297.177 166.064 297.423C164.32 297.669 167.185 286.66 167.179 285.523C167.173 284.387 163.29 277.014 163.29 277.014L167.549 264.705Z" fill="#FE99C0"/>
<path d="M176.878 193.288C170.926 194.482 142.067 224.561 141.527 233.87C140.986 243.18 163.29 282.475 163.29 282.475L169.655 264.849L161.547 236.257L174.353 227.186L176.878 193.288Z" fill="#1980FF"/>
<path d="M118.582 302.974H5.515C2.4689 302.974 0 300.394 0 297.211V271.275C0 268.092 2.4689 265.512 5.515 265.512H118.582C121.628 265.512 124.097 268.092 124.097 271.275V297.211C124.097 300.394 121.628 302.974 118.582 302.974Z" fill="#00236E"/>
<path d="M125.752 295.481H12.6851C9.63901 295.481 7.1701 292.901 7.1701 289.718V263.782C7.1701 260.599 9.63901 258.019 12.6851 258.019H125.752C128.798 258.019 131.267 260.599 131.267 263.782V289.718C131.267 292.901 128.798 295.481 125.752 295.481Z" fill="#0DBF95"/>
<path d="M98.1743 287.556C93.1277 287.556 90.531 283.208 88.0238 279.004C85.341 274.51 82.8076 270.266 77.4909 270.266C72.4014 270.266 70.4845 274.272 68.4554 278.512C66.3283 282.958 64.127 287.556 58.1866 287.556C52.3024 287.556 49.3937 282.997 46.5818 278.59C43.8512 274.309 41.2712 270.266 36.1242 270.266C30.7586 270.266 27.3743 274.741 24.1012 279.068C20.9451 283.242 17.6827 287.556 12.684 287.556V286.115C17.0147 286.115 19.9305 282.26 23.0185 278.177C26.4948 273.58 30.0906 268.825 36.1242 268.825C42.0085 268.825 44.9172 273.383 47.729 277.791C50.4596 282.072 53.0397 286.115 58.1866 286.115C63.2762 286.115 65.193 282.11 67.2221 277.87C69.3493 273.422 71.5505 268.825 77.4909 268.825C83.5724 268.825 86.5587 273.829 89.1925 278.242C91.6077 282.292 93.8925 286.117 98.1743 286.117C102.516 286.117 104.877 282.262 107.374 278.178C110.147 273.644 113.013 268.957 118.841 268.826L118.873 270.267C113.78 270.381 111.233 274.544 108.534 278.952C105.947 283.183 103.272 287.556 98.1743 287.556Z" fill="#00236E"/>
<path d="M36.1254 273.292C38.1054 273.292 39.7104 271.614 39.7104 269.545C39.7104 267.476 38.1054 265.799 36.1254 265.799C34.1454 265.799 32.5403 267.476 32.5403 269.545C32.5403 271.614 34.1454 273.292 36.1254 273.292Z" fill="white"/>
<path d="M58.1866 290.582C60.1665 290.582 61.7716 288.905 61.7716 286.836C61.7716 284.767 60.1665 283.09 58.1866 283.09C56.2066 283.09 54.6015 284.767 54.6015 286.836C54.6015 288.905 56.2066 290.582 58.1866 290.582Z" fill="white"/>
<path d="M77.4909 273.292C79.4708 273.292 81.0759 271.614 81.0759 269.545C81.0759 267.476 79.4708 265.799 77.4909 265.799C75.5109 265.799 73.9058 267.476 73.9058 269.545C73.9058 271.614 75.5109 273.292 77.4909 273.292Z" fill="white"/>
<path d="M98.1742 290.582C100.154 290.582 101.759 288.905 101.759 286.836C101.759 284.767 100.154 283.09 98.1742 283.09C96.1943 283.09 94.5892 284.767 94.5892 286.836C94.5892 288.905 96.1943 290.582 98.1742 290.582Z" fill="white"/>
<path d="M118.858 273.292C120.838 273.292 122.443 271.614 122.443 269.545C122.443 267.476 120.838 265.799 118.858 265.799C116.878 265.799 115.273 267.476 115.273 269.545C115.273 271.614 116.878 273.292 118.858 273.292Z" fill="white"/>
<rect x="19.1979" y="367.894" width="131.599" height="1.24877" fill="#BCDAFE"/>
<rect x="36.5997" y="425.352" width="107.699" height="1.24877" fill="#BCDAFE"/>
<rect x="38.6767" y="397.882" width="64.9181" height="1.24877" fill="#BCDAFE"/>
<rect x="59.0792" y="368.518" width="1.19502" height="29.9881" fill="#BCDAFE"/>
<rect x="89.8509" y="398.506" width="1.19502" height="18.5081" fill="#BCDAFE"/>
</svg>
