<svg width="781" height="563" viewBox="0 0 781 563" fill="none" xmlns="http://www.w3.org/2000/svg">
<path d="M33.8468 283.862C42.3056 266.834 47.0898 252.002 44.5326 250.734C41.9753 249.467 33.045 262.244 24.5861 279.273C16.1272 296.301 11.343 311.133 13.9003 312.401C16.4575 313.668 25.3879 300.891 33.8468 283.862Z" fill="white"/>
<path d="M44.3101 251.182C44.4135 251.233 44.5736 251.402 44.6618 251.909C44.7471 252.4 44.7428 253.094 44.6347 253.991C44.4193 255.779 43.8079 258.249 42.8447 261.235C40.9206 267.2 37.6207 275.141 33.3988 283.64C29.1768 292.14 24.8418 299.568 21.2504 304.707C19.4524 307.279 17.8534 309.259 16.5584 310.512C15.9086 311.141 15.3576 311.564 14.9149 311.793C14.4573 312.03 14.2261 312.004 14.1227 311.953C14.0193 311.902 13.8593 311.733 13.7711 311.226C13.6858 310.735 13.6901 310.041 13.7982 309.144C14.0136 307.356 14.625 304.886 15.5882 301.9C17.5122 295.936 20.8122 287.994 25.0341 279.495C29.256 270.996 33.591 263.567 37.1825 258.429C38.9804 255.856 40.5794 253.876 41.8744 252.623C42.5243 251.995 43.0753 251.571 43.5179 251.342C43.9756 251.106 44.2068 251.131 44.3101 251.182Z" stroke="#1980FF" stroke-opacity="0.5"/>
<path d="M462.946 496.726C471.405 479.697 476.854 465.195 475.116 464.334C473.379 463.472 465.113 476.579 456.654 493.608C448.195 510.636 442.746 525.139 444.484 526C446.222 526.861 454.487 513.755 462.946 496.726Z" fill="white"/>
<path d="M474.882 464.805C474.883 464.807 474.884 464.81 474.885 464.813C474.914 464.898 474.939 465.046 474.939 465.275C474.94 465.731 474.846 466.392 474.65 467.253C474.258 468.967 473.485 471.368 472.387 474.292C470.192 480.133 466.723 488 462.498 496.504C458.274 505.008 454.101 512.526 450.771 517.805C449.105 520.448 447.659 522.515 446.529 523.863C445.961 524.54 445.491 525.014 445.127 525.289C444.945 525.428 444.812 525.498 444.726 525.526C444.723 525.527 444.721 525.528 444.718 525.529C444.717 525.526 444.716 525.524 444.715 525.521C444.686 525.435 444.662 525.288 444.661 525.058C444.661 524.603 444.754 523.942 444.951 523.081C445.342 521.367 446.115 518.966 447.214 516.042C449.408 510.201 452.878 502.334 457.102 493.83C461.326 485.326 465.499 477.807 468.829 472.528C470.495 469.886 471.942 467.819 473.071 466.471C473.639 465.793 474.109 465.319 474.473 465.044C474.656 464.906 474.788 464.836 474.874 464.807C474.877 464.806 474.88 464.805 474.882 464.805ZM444.666 525.54C444.666 525.54 444.666 525.54 444.668 525.54C444.666 525.54 444.666 525.54 444.666 525.54ZM444.741 525.578C444.741 525.578 444.74 525.577 444.739 525.576C444.74 525.577 444.741 525.578 444.741 525.578ZM474.933 464.793C474.934 464.793 474.935 464.793 474.935 464.793C474.935 464.793 474.934 464.793 474.933 464.793ZM474.861 464.758C474.86 464.757 474.86 464.756 474.86 464.756C474.86 464.756 474.86 464.757 474.861 464.758Z" stroke="#1980FF" stroke-opacity="0.5"/>
<path d="M232.36 410.64L216.417 397.491L172.535 450.573L188.478 463.722L232.36 410.64Z" fill="#F55F44"/>
<path opacity="0.05" d="M195.697 467.957L218.343 473.276L234.118 406.263L211.472 400.945L195.697 467.957Z" fill="black"/>
<path d="M198.217 468.549L218.343 473.276L234.118 406.263L213.991 401.536L198.217 468.549Z" fill="#F55F44"/>
<path d="M45.2984 249.193L13.1345 313.943L443.754 527.357L475.918 462.607L45.2984 249.193Z" fill="url(#paint0_linear)"/>
<path d="M444.52 525.815C436.091 521.777 7.72651 309.341 13.9003 312.401C37.6758 276.154 44.5326 250.734 44.5326 250.734L475.152 464.149C475.152 464.149 460.03 490.658 444.52 525.815Z" fill="#1980FF" fill-opacity="0.4"/>
<path opacity="0.05" d="M268.331 361.649L232.832 344.055L202.2 405.722L237.699 423.315L268.331 361.649Z" fill="black"/>
<path d="M266.788 360.884L234.376 344.82L203.743 406.487L236.156 422.55L266.788 360.884Z" fill="#F55F44"/>
<path opacity="0.05" d="M260.614 357.824L239.006 347.115L208.374 408.781L229.982 419.49L260.614 357.824Z" fill="black"/>
<path d="M259.071 357.059L240.549 347.88L209.917 409.546L228.438 418.725L259.071 357.059Z" fill="#F55F44"/>
<path d="M256.577 555.951C258.163 555.951 259.449 554.666 259.449 553.081C259.449 551.497 258.163 550.212 256.577 550.212C254.99 550.212 253.704 551.497 253.704 553.081C253.704 554.666 254.99 555.951 256.577 555.951Z" fill="#DBDBDB"/>
<g opacity="0.5">
<path opacity="0.5" d="M31.8081 472.732H28.8624V489.405H31.8081V472.732Z" fill="#47E6B1"/>
<path opacity="0.5" d="M38.6814 482.539V479.597H21.989V482.539H38.6814Z" fill="#47E6B1"/>
</g>
<g opacity="0.5">
<path opacity="0.5" d="M774.127 264.808H771.181V281.481H774.127V264.808Z" fill="#47E6B1"/>
<path opacity="0.5" d="M781 274.616V271.674H764.308V274.616H781Z" fill="#47E6B1"/>
</g>
<g opacity="0.5">
<path opacity="0.5" d="M49.4823 57.8655H46.5366V74.5386H49.4823V57.8655Z" fill="#47E6B1"/>
<path opacity="0.5" d="M56.3556 67.6733V64.731H39.6633V67.6733H56.3556Z" fill="#47E6B1"/>
</g>
<g opacity="0.5">
<path opacity="0.5" d="M685.755 32.3655H682.81V49.0386H685.755V32.3655Z" fill="#47E6B1"/>
<path opacity="0.5" d="M692.629 42.1733V39.231H675.936V42.1733H692.629Z" fill="#47E6B1"/>
</g>
<path opacity="0.5" d="M12.0673 248.583C11.2555 248.229 10.6021 247.591 10.2313 246.787C9.86063 245.984 9.79852 245.073 10.0568 244.227C10.0986 244.097 10.125 243.963 10.1353 243.827C10.1589 243.44 10.0569 243.055 9.84445 242.73C9.63197 242.405 9.32029 242.156 8.95557 242.022C8.59086 241.888 8.19251 241.874 7.81953 241.984C7.44655 242.093 7.11878 242.32 6.88476 242.63C6.80429 242.74 6.73708 242.859 6.68455 242.984C6.331 243.795 5.69131 244.448 4.88723 244.818C4.08315 245.189 3.17083 245.251 2.32392 244.993C2.19408 244.951 2.05976 244.925 1.92375 244.914C1.53573 244.891 1.15043 244.992 0.824908 245.205C0.499386 245.417 0.250962 245.728 0.116424 246.093C-0.018114 246.457 -0.031603 246.855 0.0779483 247.227C0.1875 247.6 0.414261 247.927 0.724659 248.161C0.834791 248.241 0.954034 248.309 1.07991 248.361C1.89169 248.714 2.54513 249.353 2.91584 250.156C3.28656 250.959 3.34866 251.871 3.09034 252.717C3.04854 252.846 3.02221 252.98 3.01188 253.116C2.98826 253.504 3.09026 253.889 3.30274 254.214C3.51522 254.539 3.8269 254.787 4.19161 254.922C4.55633 255.056 4.95468 255.069 5.32766 254.96C5.70064 254.851 6.02841 254.624 6.26243 254.314C6.3429 254.204 6.41011 254.085 6.46264 253.959C6.81618 253.148 7.45588 252.496 8.25996 252.125C9.06404 251.755 9.97636 251.693 10.8233 251.951C10.9531 251.993 11.0874 252.019 11.2234 252.029C11.6115 252.053 11.9968 251.951 12.3223 251.739C12.6478 251.527 12.8963 251.215 13.0308 250.851C13.1653 250.487 13.1788 250.089 13.0693 249.716C12.9597 249.344 12.7329 249.016 12.4225 248.783C12.3124 248.702 12.1932 248.635 12.0673 248.583Z" fill="#4D8AF0"/>
<path opacity="0.5" d="M180.955 55.3707C180.143 55.0176 179.489 54.3787 179.119 53.5755C178.748 52.7723 178.686 51.8611 178.944 51.0152C178.986 50.8855 179.012 50.7513 179.023 50.6154C179.046 50.2279 178.944 49.843 178.732 49.5178C178.519 49.1927 178.208 48.9446 177.843 48.8102C177.478 48.6758 177.08 48.6623 176.707 48.7717C176.334 48.8812 176.006 49.1077 175.772 49.4177C175.692 49.5277 175.624 49.6468 175.572 49.7726C175.218 50.5834 174.579 51.2361 173.775 51.6064C172.97 51.9767 172.058 52.0387 171.211 51.7807C171.081 51.7389 170.947 51.7126 170.811 51.7023C170.423 51.6787 170.038 51.7806 169.712 51.9928C169.387 52.2051 169.138 52.5164 169.004 52.8807C168.869 53.245 168.856 53.6429 168.965 54.0154C169.075 54.388 169.302 54.7154 169.612 54.9491C169.722 55.0295 169.841 55.0966 169.967 55.1491C170.779 55.5022 171.432 56.1412 171.803 56.9443C172.174 57.7475 172.236 58.6587 171.978 59.5047C171.936 59.6344 171.91 59.7685 171.899 59.9044C171.876 60.292 171.978 60.6768 172.19 61.002C172.403 61.3271 172.714 61.5753 173.079 61.7097C173.444 61.844 173.842 61.8575 174.215 61.7481C174.588 61.6387 174.916 61.4121 175.15 61.1021C175.23 60.9921 175.297 60.873 175.35 60.7472C175.703 59.9364 176.343 59.2837 177.147 58.9134C177.951 58.5431 178.864 58.4811 179.711 58.7391C179.84 58.7809 179.975 58.8072 180.111 58.8175C180.499 58.8411 180.884 58.7392 181.21 58.527C181.535 58.3148 181.784 58.0034 181.918 57.6391C182.053 57.2748 182.066 56.877 181.957 56.5044C181.847 56.1319 181.62 55.8045 181.31 55.5707C181.2 55.4903 181.08 55.4232 180.955 55.3707Z" fill="#4D8AF0"/>
<path opacity="0.5" d="M387.154 556.545C386.342 556.192 385.689 555.553 385.318 554.75C384.948 553.946 384.885 553.035 385.144 552.189C385.186 552.059 385.212 551.925 385.222 551.789C385.246 551.402 385.144 551.017 384.931 550.692C384.719 550.367 384.407 550.119 384.043 549.984C383.678 549.85 383.279 549.836 382.906 549.946C382.533 550.055 382.206 550.282 381.972 550.592C381.891 550.702 381.824 550.821 381.771 550.947C381.418 551.757 380.778 552.41 379.974 552.78C379.17 553.151 378.258 553.213 377.411 552.955C377.281 552.913 377.147 552.887 377.011 552.876C376.623 552.853 376.237 552.955 375.912 553.167C375.586 553.379 375.338 553.69 375.203 554.055C375.069 554.419 375.055 554.817 375.165 555.189C375.274 555.562 375.501 555.889 375.812 556.123C375.922 556.204 376.041 556.271 376.167 556.323C376.979 556.676 377.632 557.315 378.003 558.118C378.373 558.922 378.436 559.833 378.177 560.679C378.135 560.808 378.109 560.943 378.099 561.078C378.075 561.466 378.177 561.851 378.39 562.176C378.602 562.501 378.914 562.749 379.279 562.884C379.643 563.018 380.042 563.032 380.415 562.922C380.788 562.813 381.115 562.586 381.349 562.276C381.43 562.166 381.497 562.047 381.55 561.921C381.903 561.111 382.543 560.458 383.347 560.087C384.151 559.717 385.063 559.655 385.91 559.913C386.04 559.955 386.174 559.981 386.31 559.992C386.698 560.015 387.084 559.913 387.409 559.701C387.735 559.489 387.983 559.178 388.118 558.813C388.252 558.449 388.266 558.051 388.156 557.678C388.047 557.306 387.82 556.979 387.51 556.745C387.399 556.664 387.28 556.597 387.154 556.545Z" fill="#4D8AF0"/>
<path opacity="0.5" d="M745.652 441.347C748.905 441.347 751.543 438.712 751.543 435.462C751.543 432.213 748.905 429.578 745.652 429.578C742.398 429.578 739.76 432.213 739.76 435.462C739.76 438.712 742.398 441.347 745.652 441.347Z" fill="#F55F44"/>
<path opacity="0.5" d="M616.04 478.616C619.294 478.616 621.932 475.982 621.932 472.732C621.932 469.482 619.294 466.847 616.04 466.847C612.787 466.847 610.149 469.482 610.149 472.732C610.149 475.982 612.787 478.616 616.04 478.616Z" fill="#4D8AF0"/>
<path opacity="0.5" d="M101.523 536.482C104.777 536.482 107.415 533.847 107.415 530.597C107.415 527.347 104.777 524.713 101.523 524.713C98.2694 524.713 95.6318 527.347 95.6318 530.597C95.6318 533.847 98.2694 536.482 101.523 536.482Z" fill="#47E6B1"/>
<path opacity="0.5" d="M403.949 11.7693C407.203 11.7693 409.841 9.13462 409.841 5.88463C409.841 2.63464 407.203 0 403.949 0C400.696 0 398.058 2.63464 398.058 5.88463C398.058 9.13462 400.696 11.7693 403.949 11.7693Z" fill="#F55F44"/>
<path d="M201.186 350.626L177.621 385.933C177.621 385.933 185.476 422.222 359.273 421.241C533.069 420.26 546.816 385.933 546.816 385.933L514.413 338.856L415.241 271.183L201.186 350.626Z" fill="#C28F09"/>
<path opacity="0.15" d="M201.186 350.626L177.621 385.933C177.621 385.933 185.476 422.222 359.273 421.241C533.069 420.26 546.816 385.933 546.816 385.933L514.413 338.856L415.241 271.183L201.186 350.626Z" fill="black"/>
<path d="M702.447 219.693L393.148 356.02L16.0973 219.693L361.727 62.7693L531.39 140.907L537.468 143.712L702.447 219.693Z" fill="#C28F09"/>
<path opacity="0.15" d="M702.447 219.693L393.148 356.02L16.0973 219.693L361.727 62.7693L531.39 140.907L537.468 143.712L702.447 219.693Z" fill="black"/>
<path d="M543.87 252.372L537.979 252.725L531.39 140.907L537.468 143.712L543.87 252.372Z" fill="#F5F5F5"/>
<path d="M205.114 219.202L177.621 385.934C177.621 385.934 374.983 322.183 546.816 385.934L521.287 209.395C521.287 209.395 290.539 180.952 205.114 219.202Z" fill="#C28F09"/>
<path d="M543.379 286.385C559.106 286.385 571.855 277.603 571.855 266.77C571.855 255.936 559.106 247.154 543.379 247.154C527.653 247.154 514.904 255.936 514.904 266.77C514.904 277.603 527.653 286.385 543.379 286.385Z" fill="#F5F5F5"/>
<defs>
<linearGradient id="paint0_linear" x1="228.444" y1="420.65" x2="260.549" y2="355.87" gradientUnits="userSpaceOnUse">
<stop stop-color="#808080" stop-opacity="0.25"/>
<stop offset="0.53514" stop-color="#808080" stop-opacity="0.12"/>
<stop offset="1" stop-color="#808080" stop-opacity="0.1"/>
</linearGradient>
</defs>
</svg>
