<svg width="16" height="17" viewBox="0 0 16 17" fill="none" xmlns="http://www.w3.org/2000/svg">
<path id="ico_twitter" d="M15.8611 2.19869C15.2888 2.52786 14.6737 2.74954 14.0281 2.84947C14.6873 2.33808 15.1935 1.52775 15.4314 0.562066C14.815 1.03567 14.1318 1.37996 13.4046 1.56554C12.8232 0.76192 11.9929 0.259766 11.0752 0.259766C9.0147 0.259766 7.50063 2.75038 7.966 5.33589C5.31443 5.16375 2.96295 3.51789 1.3886 1.01636C0.552486 2.87466 0.954986 5.30566 2.37573 6.5367C1.85332 6.51486 1.36073 6.32928 0.931004 6.01943C0.896004 7.93483 1.95573 9.7268 3.49054 10.1257C3.04137 10.2835 2.54943 10.3205 2.04906 10.1962C2.4548 11.8387 3.63313 13.0336 5.03054 13.0672C3.68887 14.4301 1.9985 15.0389 0.305542 14.7803C1.71786 15.9534 3.39591 16.6377 5.19776 16.6377C11.1231 16.6377 14.4708 10.1542 14.2686 4.33914C14.8921 3.75553 15.4333 3.02749 15.8611 2.19869Z" fill="white"/>
</svg>
